# xmcd
#
# Track frame offsets:
#	150
#	22779
#	39083
#	56984
#	71945
#	85191
#	98613
#	112734
#	129288
#	143280
#	158599
#	173975
#	188742
#	205183
#	221772
#	237644
#	254593
#
# Disc length: 3584
#
# Revision: 2
# Processed by: cddbd v1.5.1PL0 Copyright (c) Steve Scherf et al.
# Submitted via: audiograbber 1.83.01
# Normalized: r1:DSETVAR1
#
DISCID=e10dfe11
DTITLE=Various Artist - French Trance - CD 2
DYEAR=2003
DGENRE=Trance
TTITLE0=In-Grid - In-Tango
TTITLE1=Kate Ryan - Désenchantée
TTITLE2=Gigi D'Agostino and Albertino - Super
TTITLE3=Spacekid - Moi...Lolita
TTITLE4=Lexy and K-Paul - Alexia La Grecque Fernsehtürm
TTITLE5=Betty - Boum
TTITLE6=FTW - Si Douce
TTITLE7=Andre Daniélle - Avec Moi
TTITLE8=The Nightflyer - Africa
TTITLE9=LE 6-9 - Le S'Fur
TTITLE10=Factor X-Y - Pour Tojours
TTITLE11=Tamara - Pa Pa Parasol
TTITLE12=LE 6-9 - Mon Cousin
TTITLE13=Elena - C'est La Ouate
TTITLE14=Toskana VS. Magali - Je Rève
TTITLE15=Karine Santaniello - Le Passé, Le Présent, Le Futur
TTITLE16=Simi Nah - Cherchez Le Garcon
EXTD=
EXTT0=
EXTT1=
EXTT2=
EXTT3=
EXTT4=
EXTT5=
EXTT6=
EXTT7=
EXTT8=
EXTT9=
EXTT10=
EXTT11=
EXTT12=
EXTT13=
EXTT14=
EXTT15=
EXTT16=
PLAYORDER=
